<?xml version="1.0" standalone="no"?>
<!DOCTYPE svg PUBLIC "-//W3C//DTD SVG 20010904//EN"
 "http://www.w3.org/TR/2001/REC-SVG-20010904/DTD/svg10.dtd">
<svg version="1.0" xmlns="http://www.w3.org/2000/svg"
 width="512.000000pt" height="512.000000pt" viewBox="0 0 512.000000 512.000000"
 preserveAspectRatio="xMidYMid meet">
<metadata>
Created by potrace 1.14, written by Peter Selinger 2001-2017
</metadata>
<g transform="translate(0.000000,512.000000) scale(0.100000,-0.100000)"
fill="#000000" stroke="none">
<path d="M285 5098 c-35 -31 -40 -81 -12 -114 22 -25 64 -38 157 -50 19 -2 42
-6 50 -8 37 -7 425 -73 485 -81 11 -2 49 -8 85 -15 36 -6 81 -13 100 -15 19
-3 48 -7 65 -10 68 -14 65 -9 65 -106 l0 -89 -51 0 c-52 0 -85 -12 -106 -39
-9 -11 -12 -72 -13 -202 l0 -186 -66 -2 c-37 -1 -99 -12 -144 -26 -339 -108
-491 -501 -312 -808 76 -130 157 -194 344 -267 188 -73 232 -91 240 -99 3 -3
-107 -153 -246 -334 -139 -180 -262 -347 -274 -370 -52 -104 -55 -137 -55
-642 0 -317 4 -483 12 -511 49 -179 284 -244 416 -115 38 36 72 94 79 133 3
13 5 222 5 464 l1 442 107 138 c58 77 136 177 172 224 36 47 116 151 179 232
111 144 113 147 140 136 311 -124 333 -131 422 -132 l85 -1 3 -212 2 -213 -37
0 c-153 -1 -189 -6 -226 -29 -60 -37 -79 -85 -80 -207 0 -67 -4 -104 -11 -105
-6 0 -69 -2 -141 -2 -83 -2 -138 -7 -152 -15 -30 -17 -39 -59 -38 -170 1 -76
5 -98 22 -120 25 -34 50 -38 199 -37 l121 1 1 -100 c0 -107 10 -147 45 -184
54 -58 35 -56 627 -58 583 -1 585 -1 638 49 44 41 54 73 55 186 l2 106 143 1
c140 1 144 1 169 26 23 24 25 33 28 124 4 181 -4 188 -195 191 -74 1 -137 2
-140 2 -3 1 -7 48 -7 106 -2 123 -20 169 -80 206 -33 21 -54 24 -151 28 l-112
3 2 212 3 211 85 1 c80 1 96 5 260 69 96 37 178 69 182 71 3 2 134 -161 290
-363 l283 -368 5 -465 5 -465 28 -50 c47 -86 132 -135 230 -135 104 1 210 82
238 183 8 29 12 185 12 512 0 508 -3 536 -57 642 -19 38 -247 344 -390 525
-12 14 -31 39 -43 55 -12 15 -37 48 -57 73 -19 25 -32 48 -28 51 4 4 83 37
177 74 201 79 267 117 335 193 49 55 116 172 125 220 2 12 6 26 9 31 3 5 8 44
12 88 21 258 -149 501 -401 573 -78 22 -62 20 -135 20 l-60 0 0 188 c-1 131
-4 192 -13 203 -21 27 -54 39 -106 39 l-51 0 0 93 0 93 42 3 c23 1 45 4 48 6
4 3 27 7 51 10 24 3 107 16 184 30 77 13 156 27 175 30 19 3 46 7 60 10 14 3
41 7 60 10 39 6 94 16 125 21 27 5 131 22 180 29 100 15 136 111 60 161 -26
17 -65 15 -190 -9 -11 -3 -41 -7 -66 -11 -62 -9 -101 -16 -119 -21 -8 -2 -37
-7 -65 -11 -27 -3 -59 -8 -70 -10 -20 -4 -186 -32 -240 -40 -27 -5 -194 -33
-219 -37 -6 -1 -13 21 -16 48 -7 63 -25 92 -63 99 -46 9 -53 8 -81 -20 -21
-22 -26 -36 -26 -75 0 -39 -3 -49 -16 -49 -9 0 -219 34 -466 75 -247 41 -458
75 -468 75 -31 0 -70 -42 -75 -79 -3 -27 2 -39 23 -60 25 -25 47 -30 257 -66
127 -21 239 -39 250 -41 39 -5 450 -74 473 -79 21 -5 22 -10 22 -95 l0 -90
-49 0 c-115 0 -122 -15 -124 -246 l-2 -179 -935 0 -935 0 -1 172 c-1 94 -4
183 -8 197 -8 34 -54 56 -116 56 l-50 0 0 90 c0 85 1 90 23 95 12 2 105 18
207 35 102 17 196 33 210 36 14 2 43 7 65 10 22 3 74 12 116 19 42 8 98 17
125 20 27 4 56 8 64 10 8 3 33 7 55 11 22 3 47 8 55 9 8 2 23 4 33 4 10 1 31
14 47 30 23 22 28 35 25 61 -5 40 -28 67 -64 75 -15 3 -229 -28 -478 -70 -248
-41 -458 -75 -467 -75 -12 0 -16 11 -16 49 0 38 -5 54 -24 72 -63 61 -146 17
-146 -78 0 -49 -4 -53 -43 -43 -18 5 -57 12 -87 15 -30 4 -58 9 -61 10 -3 2
-28 7 -55 11 -27 3 -51 7 -54 9 -3 2 -30 6 -60 10 -30 3 -64 9 -75 12 -11 3
-31 7 -45 9 -38 5 -72 10 -105 17 -26 6 -56 10 -140 22 -11 2 -33 6 -50 9 -71
12 -161 26 -177 26 -9 0 -29 -10 -43 -22z"/>
<path d="M1624 1072 c-118 -72 -128 -83 -129 -138 l-1 -49 -114 -73 c-99 -63
-116 -71 -126 -57 -25 34 -99 26 -148 -17 -6 -5 -54 -37 -106 -70 -220 -141
-777 -503 -797 -517 -48 -35 -37 -121 19 -140 45 -16 56 -14 105 19 24 17 56
36 71 43 22 11 218 13 1050 13 l1022 -1 18 -35 c33 -66 116 -64 148 3 l16 33
1031 -1 1032 0 35 -26 c90 -68 151 -74 183 -20 39 66 16 95 -172 215 -141 90
-182 103 -216 70 -17 -18 -28 -15 -86 24 -15 9 -61 39 -103 66 -75 47 -76 49
-70 82 8 42 -9 70 -62 105 -416 274 -790 509 -811 509 -37 0 -63 -18 -78 -54
l-14 -32 -758 2 c-417 1 -761 2 -765 3 -5 0 -8 8 -8 16 0 24 -50 65 -79 65
-14 0 -53 -17 -87 -38z"/>
</g>
</svg>
